# xmcd CD database file
#
# Track frame offsets:
#	150
#	13116
#	29435
#	45826
#	62991
#	78764
#	94650
#	112516
#	127682
#	144630
#	165100
#	182452
#
# Disc length: 2792 seconds
#
# Revision: 1
# Processed by: cddbd v1.5PL3 Copyright (c) Steve Scherf et al.
# Submitted via: CDex 1.51
#
DISCID=7d0ae60c
DTITLE=Fragile Duo - Udo Betz - Petra Woisetschläger - Fragile
DYEAR=2004
DGENRE=Jazz
TTITLE0=Light My Fire
TTITLE1=Certainly
TTITLE2=Sweet Dreams
TTITLE3=Tri 4/6
TTITLE4=If You Love Somebody
TTITLE5=Fragile
TTITLE6=Sorry Seems To Be The Hardest Word
TTITLE7=Lady Marmelade
TTITLE8=Roxanne
TTITLE9=Que Sera
TTITLE10=Crazy
TTITLE11=Abgesang - My Funny Valentine
EXTD=YEAR: 2004
EXTT0=
EXTT1=
EXTT2=
EXTT3=
EXTT4=
EXTT5=
EXTT6=
EXTT7=
EXTT8=
EXTT9=
EXTT10=
EXTT11=
PLAYORDER=
